# xmcd
#
# Track frame offsets:
#	150
#	17412
#	36905
#	56810
#	76133
#
# Disc length: 1255 seconds
#
# Revision: 1
# Processed by: cddbd v1.5.2PL0 Copyright (c) Steve Scherf et al.
# Submitted via: audiograbber 1.83.01
#
DISCID=3204e505
DTITLE=Daniel Eagle - Daniel Eagle
DYEAR=2013
DGENRE=Country
TTITLE0=I Want the Country
TTITLE1=Tanlines
TTITLE2=If It Was Me
TTITLE3=Hometown
TTITLE4=If I Had Back Now
EXTD=
EXTT0=
EXTT1=
EXTT2=
EXTT3=
EXTT4=
PLAYORDER=
